<svg xmlns="http://www.w3.org/2000/svg" width="32" height="32" viewBox="0 0 32 32">
  <path fill="#F7DF1E" d="M2,2v28h28V2H2z M17.3,24.6c0,2.5-1.5,3.6-3.6,3.6c-1.9,0-3-1-3.6-2.2l2-1.2c0.4,0.7,0.7,1.2,1.6,1.2 c0.8,0,1.3-0.3,1.3-1.5v-8.1h2.4V24.6z M24,28.2c-2.2,0-3.6-1-4.3-2.4l2-1.2c0.5,0.9,1.2,1.5,2.4,1.5c1,0,1.6-0.5,1.6-1.2 c0-0.8-0.7-1.1-1.8-1.6l-0.6-0.3c-1.8-0.8-3-1.7-3-3.8c0-1.9,1.4-3.3,3.7-3.3c1.6,0,2.7,0.6,3.5,2l-1.9,1.2c-0.4-0.8-0.9-1-1.6-1 c-0.8,0-1.2,0.5-1.2,1c0,0.7,0.5,1,1.5,1.4l0.6,0.3c2.1,0.9,3.3,1.8,3.3,3.9C28.1,26.8,26.5,28.2,24,28.2z"/>
</svg> 