<svg xmlns="http://www.w3.org/2000/svg" width="32" height="32" viewBox="0 0 32 32">
  <path fill="#336791" d="M16,0C9.373,0,4,2.686,4,6v20c0,3.314,5.373,6,12,6s12-2.686,12-6V6C28,2.686,22.627,0,16,0z"/>
  <path fill="#FFFFFF" d="M16,5c-4.418,0-8,1.343-8,3s3.582,3,8,3s8-1.343,8-3S20.418,5,16,5z"/>
  <path fill="#FFFFFF" d="M24,13.5c0,1.657-3.582,3-8,3s-8-1.343-8-3"/>
  <path fill="#FFFFFF" d="M24,19.5c0,1.657-3.582,3-8,3s-8-1.343-8-3"/>
  <path fill="#FFFFFF" d="M24,25.5c0,1.657-3.582,3-8,3s-8-1.343-8-3"/>
</svg> 