<svg width="24" height="24" viewBox="0 0 24 24" fill="none" xmlns="http://www.w3.org/2000/svg">
  <path d="M12 2C6.477 2 2 6.477 2 12C2 17.523 6.477 22 12 22C17.523 22 22 17.523 22 12C22 6.477 17.523 2 12 2ZM12 20C7.582 20 4 16.418 4 12C4 7.582 7.582 4 12 4C16.418 4 20 7.582 20 12C20 16.418 16.418 20 12 20Z" fill="white"/>
  <path d="M12 6.5C9.51 6.5 7.5 8.51 7.5 11C7.5 13.49 9.51 15.5 12 15.5C14.49 15.5 16.5 13.49 16.5 11C16.5 8.51 14.49 6.5 12 6.5ZM12 13.5C10.62 13.5 9.5 12.38 9.5 11C9.5 9.62 10.62 8.5 12 8.5C13.38 8.5 14.5 9.62 14.5 11C14.5 12.38 13.38 13.5 12 13.5Z" fill="white"/>
</svg> 